# xmcd
#
# Track frame offsets:
#	150
#	14554
#	32392
#	49648
#	68509
#	80853
#	97938
#	109141
#	125764
#	139117
#	158209
#	178518
#	193536
#
# Disc length: 2828 seconds
# Revision: 0
# Processed by: cddbd v1.5.2PL0 Copyright (c) Steve Scherf et al.
# Submitted via: dBpowerAMP V12.0
#
DISCID=a80b0a0d
DTITLE=The Real Nasty - Strangers and Friends
DYEAR=2009
DGENRE=Country
TTITLE0=The Whole Thing
TTITLE1=No Big Deal
TTITLE2=Jezebelle
TTITLE3=Goodtime Johnny
TTITLE4=I'm A Friend of Hers
TTITLE5=Girl On The Mountain
TTITLE6=Leave It Alone
TTITLE7=Hello, Goodnight
TTITLE8=Whiskey for Breakfast
TTITLE9=Spiders (Coming Towards You)
TTITLE10=Get Away
TTITLE11=East Coast Women
TTITLE12=Sea of People
EXTD=
EXTT0=
EXTT1=
EXTT2=
EXTT3=
EXTT4=
EXTT5=
EXTT6=
EXTT7=
EXTT8=
EXTT9=
EXTT10=
EXTT11=
EXTT12=
PLAYORDER=
